<?xml version="1.0" encoding="UTF-8"?>
<svg xmlns="http://www.w3.org/2000/svg" version="1.1" viewBox="0 0 10.08 10.08">
  <defs>
    <style>
      .st0 {
        fill: #fe7f00;
        stroke: #9b3e04;
        stroke-miterlimit: 10;
        stroke-width: .25px;
      }
    </style>
  </defs>
  <path class="st0" d="M5.62.65c2.36-.23,4.17,1.8,3.73,4.12-.41,2.17-2.73,3.3-4.69,2.51-.15-.06-.56-.33-.67-.3l-2.31,2.28c-.6.45-1.35-.2-.93-.85l2.34-2.37c-.16-.33-.34-.63-.44-1C2.08,2.95,3.47.86,5.62.65ZM8.18,4.09c0-1.22-.99-2.21-2.21-2.21s-2.21.99-2.21,2.21.99,2.21,2.21,2.21,2.21-.99,2.21-2.21Z"/>
</svg>